<svg preserveAspectRatio="xMinYMax" viewBox="0 0 1000 238" fill="none" xmlns="http://www.w3.org/2000/svg">
    <path d="M327.475 8.88633V228.989C327.475 233.889 323.482 237.875 318.574 237.875H261.09C256.182 237.875 252.189 233.889 252.189 228.989V8.88633C252.189 3.98639 256.182 0 261.09 0H318.574C323.482 0 327.475 3.98639 327.475 8.88633ZM237.589 227.909L170.622 113.529L234.095 10.402C237.152 6.00035 234.012 0 228.646 0L158.871 0.124575C156.667 0.124575 154.587 1.22498 153.36 3.05208L104.049 86.704H75.2657V8.88633C75.2657 3.98639 71.2726 0 66.3644 0H8.90127C3.9723 0 0 3.98639 0 8.88633V228.989C0 233.889 3.99309 237.875 8.90127 237.875H66.3852C71.2934 237.875 75.2865 233.889 75.2865 228.989V151.504H110.309L159.329 234.74C160.535 236.733 162.698 237.979 165.027 237.979H231.932C237.132 237.979 240.314 232.311 237.589 227.909ZM991.099 237.875C996.007 237.875 1000 233.889 1000 228.989V8.88633C1000 3.98639 996.007 0 991.099 0H935.694C930.786 0 926.793 3.98639 926.793 8.88633L927.147 121.481L826.571 0.124575H762.681C757.773 0.124575 753.78 4.11097 753.78 9.0109V229.134C753.78 234.034 757.752 238 762.66 238H817.94C822.848 238 826.82 234.034 826.82 229.134V116.394L926.377 237.896L991.099 237.875ZM730.736 9.82064V228.076C730.736 233.495 726.327 237.896 720.899 237.896H360.335C354.907 237.896 350.498 233.495 350.498 228.076V9.82064C350.498 4.40164 354.907 0 360.335 0H720.92C726.327 0 730.736 4.40164 730.736 9.82064ZM655.908 63.2424C655.908 61.27 654.098 59.7959 652.143 60.1904C613.19 67.9555 475.262 69.139 429.008 60.1281C427.095 59.7543 425.327 61.2285 425.327 63.2009V171.186C425.327 173.097 427.012 174.55 428.925 174.28C467.275 168.612 613.065 169.546 652.413 174.405C654.285 174.633 655.908 173.18 655.908 171.311V63.2424Z" fill="#EEEEEE"/>
</svg>